# xmcd CD database file
# Copyright (C) 1997 Ti Kan
#
# Track frame offsets:
#  182
#  11797
#  22132
#  31590
#  43547
#  59570
#  68422
#  81835
#  94275
#  106295
#
# Disc length: 1635 seconds
#
# Revision: 2
# Processed by: cddbd v1.4PL0 Copyright (c) Steve Scherf et al.
# Submitted via: Gronk 1.4
#
DISCID=7a06610a
DTITLE=Merle Haggard - Best Of Country Blues
DYEAR=1900
DGENRE=country
TTITLE0=Workin' Man Blues
TTITLE1=Blues Stay Away From Me
TTITLE2=Moanin' The Blues
TTITLE3=Blues For Dixie
TTITLE4=Mississippi Delta Blues
TTITLE5=White Man Singin' The Blues
TTITLE6=Cotton Patch Blues
TTITLE7=T.B. Blues
TTITLE8=Gamblin' Polka Dot Blues
TTITLE9=Brain Cloudy Blues
EXTD=
EXTT0=
EXTT1=
EXTT2=
EXTT3=
EXTT4=
EXTT5=
EXTT6=
EXTT7=
EXTT8=
EXTT9=
PLAYORDER=
